<?xml version="1.0" encoding="UTF-8" standalone="no"?>
<!-- Created with Inkscape (http://www.inkscape.org/) -->

<svg
   xmlns:dc="http://purl.org/dc/elements/1.1/"
   xmlns:cc="http://creativecommons.org/ns#"
   xmlns:rdf="http://www.w3.org/1999/02/22-rdf-syntax-ns#"
   xmlns:svg="http://www.w3.org/2000/svg"
   xmlns="http://www.w3.org/2000/svg"
   xmlns:xlink="http://www.w3.org/1999/xlink"
   xmlns:sodipodi="http://sodipodi.sourceforge.net/DTD/sodipodi-0.dtd"
   xmlns:inkscape="http://www.inkscape.org/namespaces/inkscape"
   id="svg2383"
   sodipodi:version="0.32"
   inkscape:version="0.48.0 r9654"
   width="57"
   height="57"
   version="1.0"
   sodipodi:docname="animgif-Icon.svg"
   inkscape:output_extension="org.inkscape.output.svg.inkscape"
   inkscape:export-filename="/Users/jamesu/Projects/webplay/Icon.png"
   inkscape:export-xdpi="90"
   inkscape:export-ydpi="90">
  <sodipodi:namedview
     inkscape:window-height="689"
     inkscape:window-width="1236"
     inkscape:pageshadow="2"
     inkscape:pageopacity="0.0"
     guidetolerance="10.0"
     gridtolerance="10.0"
     objecttolerance="10.0"
     borderopacity="1.0"
     bordercolor="#666666"
     pagecolor="#ffffff"
     id="base"
     showgrid="false"
     inkscape:zoom="4.368421"
     inkscape:cx="25.925543"
     inkscape:cy="41.102881"
     inkscape:window-x="36"
     inkscape:window-y="0"
     inkscape:current-layer="svg2383"
     inkscape:window-maximized="0" />
  <metadata
     id="metadata2388">
    <rdf:RDF>
      <cc:Work
         rdf:about="">
        <dc:format>image/svg+xml</dc:format>
        <dc:type
           rdf:resource="http://purl.org/dc/dcmitype/StillImage" />
        <dc:title></dc:title>
      </cc:Work>
    </rdf:RDF>
  </metadata>
  <defs
     id="defs2386">
    <linearGradient
       id="linearGradient3454">
      <stop
         style="stop-color:#f45e00;stop-opacity:1;"
         offset="0"
         id="stop3456" />
      <stop
         style="stop-color:#ffceae;stop-opacity:1;"
         offset="1"
         id="stop3458" />
    </linearGradient>
    <linearGradient
       id="linearGradient3175">
      <stop
         style="stop-color:#000000;stop-opacity:0.5;"
         offset="0"
         id="stop3177" />
      <stop
         id="stop3187"
         offset="0.5"
         style="stop-color:#e6e6e6;stop-opacity:0.91803277;" />
      <stop
         style="stop-color:#000000;stop-opacity:0.5;"
         offset="1"
         id="stop3179" />
    </linearGradient>
    <inkscape:perspective
       id="perspective2390"
       inkscape:persp3d-origin="372.04724 : 350.78739 : 1"
       inkscape:vp_z="744.09448 : 526.18109 : 1"
       inkscape:vp_y="0 : 1000 : 0"
       inkscape:vp_x="0 : 526.18109 : 1"
       sodipodi:type="inkscape:persp3d" />
    <filter
       inkscape:label="filter1"
       id="filter2656">
      <feGaussianBlur
         id="feGaussianBlur2658"
         stdDeviation="1.5023880597014925" />
    </filter>
    <linearGradient
       inkscape:collect="always"
       xlink:href="#linearGradient3454"
       id="linearGradient3460"
       x1="28.772003"
       y1="60.318295"
       x2="27.962664"
       y2="-17.985264"
       gradientUnits="userSpaceOnUse"
       gradientTransform="matrix(0.9972502,0,0,0.9999861,-2.2255185e-3,8.0584745e-4)" />
  </defs>
  <rect
     style="opacity:1;fill:url(#linearGradient3460);fill-opacity:1;stroke:none;stroke-width:2;stroke-linecap:butt;stroke-linejoin:miter;stroke-miterlimit:4;stroke-dasharray:none;stroke-opacity:1"
     id="rect4596"
     width="59"
     height="59"
     x="-0.80933911"
     y="-1.0287924"
     inkscape:export-xdpi="109.83"
     inkscape:export-ydpi="109.83"
     inkscape:export-filename="/Users/jamesu/Projects/iPhone/webplay/Icon-72.png" />
  <image
     y="0"
     x="0"
     id="image2392"
     height="57"
     width="57"
     sodipodi:absref="/Users/jamesu/Projects/webplay/Icon.png"
     inkscape:export-filename="/Users/jamesu/Projects/iPhone/webplay/Icon-72.png"
     inkscape:export-xdpi="108.67"
     inkscape:export-ydpi="108.67" />
  <path
     sodipodi:nodetypes="cccsscsscccccsccscscscccccsccscccsssccccccscssscccscsssccccsscccccccscssscssscscccssscscsccscssscccccccssssccsssccccccccscccsccsccccscscsccsssccscsscccscccc"
     style="font-size:12px;font-style:normal;font-weight:normal;opacity:1;fill:#ffb326;fill-opacity:1;stroke:none;stroke-width:1px;stroke-linecap:butt;stroke-linejoin:miter;stroke-opacity:1;filter:url(#filter2656);font-family:Bitstream Vera Sans"
     d="M 26.978562,36.822954 C 26.978562,36.822954 23.82917,50.162863 23.82917,50.162863 C 23.82917,50.162863 21.567622,52.611361 21.567622,52.611361 C 21.567622,52.611361 20.477839,51.462126 20.477839,51.462126 C 20.477839,51.462126 22.304477,50.213759 22.304477,50.213759 C 22.304477,50.213759 27.012606,51.315987 27.012606,51.315987 C 27.012606,51.315987 18.118916,50.86697 18.118916,50.86697 C 18.118916,50.86697 18.545017,51.694694 18.545017,51.694694 C 18.545017,51.694694 16.628051,48.957687 16.628051,48.957687 C 16.628051,48.957687 16.036239,51.392527 16.036239,51.392527 C 16.036239,51.392527 12.720767,49.682936 12.720767,49.682936 C 12.720767,49.682936 9.8687854,48.036218 9.8687854,48.036218 C 9.8687854,48.036218 8.9590443,47.239897 8.9590443,47.239897 C 8.9590443,47.239897 7.9814965,45.599353 7.9814965,45.599353 C 7.9814965,45.599353 8.6742906,45.43523 8.6742906,45.43523 C 8.6742906,45.43523 8.9136372,43.970512 8.9136372,43.970512 C 8.9136372,43.970512 6.0324535,41.251019 6.0324535,41.251019 C 6.0324535,41.251019 7.3345026,39.952413 7.3345026,39.952413 C 7.3345026,39.952413 6.4741348,31.716939 6.4741348,31.716939 C 6.4741348,31.716939 9.5751662,23.753375 9.5751662,23.753375 C 9.5751662,23.753375 7.9135046,23.566667 7.9135046,23.566667 C 7.9135046,23.566667 9.830645,15.647773 9.830645,15.647773 C 9.830645,15.647773 11.604691,12.512944 11.604691,12.512944 C 11.604691,12.512944 14.377951,9.9732268 14.377951,9.9732268 C 14.377951,9.9732268 21.834538,9.0081389 21.834538,9.0081389 C 21.834538,9.0081389 25.938174,11.929395 25.938174,11.929395 C 25.938174,11.929395 28.059257,17.959101 28.059257,17.959101 C 28.059257,17.959101 29.487353,22.596146 29.487353,22.596146 C 29.487353,22.596146 28.446938,23.408678 28.446938,23.408678 C 28.446938,23.408678 27.669713,30.702607 27.669713,30.702607 C 27.669713,30.702607 23.987429,32.635336 23.987429,32.635336 C 23.987429,32.635336 25.328641,29.977341 25.328641,29.977341 C 25.328641,29.977341 24.144933,33.369476 24.144933,33.369476 C 24.144933,33.369476 23.148965,36.896732 23.148965,36.896732 C 23.148965,36.896732 20.834069,31.749913 20.834069,31.749913 C 20.834069,31.749913 22.30094,33.801971 22.30094,33.801971 C 22.30094,33.801971 22.822882,34.151637 22.822882,34.151637 C 22.822882,34.151637 22.360234,34.970252 22.360234,34.970252 C 22.360234,34.970252 19.500124,37.333347 19.500124,37.333347 C 19.500124,37.333347 19.503195,41.255606 19.503195,41.255606 C 19.503195,41.255606 21.619884,42.759965 21.619884,42.759965 C 21.619884,42.759965 20.974009,42.56522 20.974009,42.56522 C 20.974009,42.56522 20.619683,41.322532 20.619683,41.322532 C 20.619683,41.322532 23.406922,42.511529 23.406922,42.511529 C 23.406922,42.511529 21.77902,46.40201 21.77902,46.40201 C 21.77902,46.40201 24.211793,44.778955 24.211793,44.778955 C 24.211793,44.778955 23.210977,40.923989 23.210977,40.923989 C 23.210977,40.923989 22.26279,37.993411 22.26279,37.993411 C 22.26279,37.993411 23.270999,40.59837 23.270999,40.59837 C 23.270999,40.59837 21.531188,39.829545 21.531188,39.829545 C 21.531188,39.829545 25.684117,36.976278 25.684117,36.976278 C 25.684117,36.976278 26.340233,37.241207 26.340233,37.241207 C 26.340233,37.241207 22.262802,38.89223 22.262802,38.89223 C 22.262802,38.89223 21.338634,38.370423 21.338634,38.370423 C 21.338634,38.370423 27.785158,35.219327 27.785158,35.219327 C 27.785158,35.219327 20.173615,37.248362 20.173615,37.248362 C 20.173615,37.248362 21.179231,33.942792 21.179231,33.942792 C 21.179231,33.942792 22.821722,33.873977 22.821722,33.873977 C 22.821722,33.873977 22.938103,33.87674 22.938103,33.87674 C 22.938103,33.87674 27.077264,36.429918 27.077264,36.429918 C 27.077264,36.429918 26.962243,34.858141 26.962243,34.858141 C 26.962243,34.858141 27.794615,37.716793 27.794615,37.716793 M 36.889737,29.48591 C 36.889737,29.48591 38.635453,38.374945 38.635453,38.374945 C 38.635453,38.374945 39.00781,50.789382 39.00781,50.789382 C 39.00781,50.789382 36.353847,51.12242 36.353847,51.12242 C 36.353847,51.12242 36.951496,52.319265 36.951496,52.319265 C 36.951496,52.319265 34.555952,48.753217 34.555952,48.753217 C 34.555952,48.753217 30.803696,49.175946 30.803696,49.175946 C 30.803696,49.175946 30.110374,48.576936 30.110374,48.576936 C 30.110374,48.576936 28.767799,49.37129 28.767799,49.37129 C 28.767799,49.37129 28.513701,49.515061 28.513701,49.515061 C 28.513701,49.515061 27.40557,50.376285 27.40557,50.376285 C 27.40557,50.376285 26.452502,50.884928 26.452502,50.884928 C 26.452502,50.884928 25.474305,47.152266 25.474305,47.152266 C 25.474305,47.152266 24.46377,42.789252 24.46377,42.789252 C 24.46377,42.789252 24.656955,41.438639 24.656955,41.438639 C 24.656955,41.438639 26.862648,41.160275 26.862648,41.160275 C 26.862648,41.160275 28.544149,34.005014 28.544149,34.005014 C 28.544149,34.005014 26.449548,36.512981 26.449548,36.512981 C 26.449548,36.512981 29.617744,18.531145 29.617744,18.531145 C 29.617744,18.531145 29.489597,18.005422 29.489597,18.005422 C 29.489597,18.005422 22.92154,22.102436 22.92154,22.102436 C 22.92154,22.102436 27.181589,18.780038 27.181589,18.780038 C 27.181589,18.780038 30.211921,16.348559 30.211921,16.348559 C 30.211921,16.348559 27.048873,16.703658 27.048873,16.703658 C 27.048873,16.703658 27.036814,16.388648 27.036814,16.388648 C 27.036814,16.388648 28.844308,17.200084 28.844308,17.200084 C 28.844308,17.200084 26.933904,18.195175 26.933904,18.195175 C 26.933904,18.195175 29.83083,12.117053 29.83083,12.117053 C 29.83083,12.117053 29.913682,10.630868 29.913682,10.630868 C 29.913682,10.630868 28.637874,10.053994 28.637874,10.053994 C 28.637874,10.053994 28.147395,9.3025945 28.147395,9.3025945 C 28.147395,9.3025945 29.565206,11.730037 29.565206,11.730037 C 29.565206,11.730037 30.886797,8.6630265 30.886797,8.6630265 C 30.886797,8.6630265 34.800248,12.422459 34.800248,12.422459 C 34.800248,12.422459 37.701421,9.6169492 37.701421,9.6169492 C 37.701421,9.6169492 39.622997,18.409689 39.622997,18.409689 M 52.630487,20.916847 C 52.630487,20.916847 51.595403,20.04059 51.595403,20.04059 C 51.595403,20.04059 50.441403,20.69819 50.441403,20.69819 C 50.441403,20.69819 47.945701,19.134808 47.945701,19.134808 C 47.945701,19.134808 45.820739,19.505907 45.820739,19.505907 C 45.820739,19.505907 46.733489,20.316861 46.733489,20.316861 C 46.733489,20.316861 44.107108,20.506001 44.107108,20.506001 C 44.107108,20.506001 44.908361,19.546041 44.908361,19.546041 C 44.908361,19.546041 46.040608,18.780467 46.040608,18.780467 C 46.040608,18.780467 45.794671,19.513221 45.794671,19.513221 C 45.794671,19.513221 45.62546,20.505788 45.62546,20.505788 C 45.62546,20.505788 44.254647,19.600189 44.254647,19.600189 C 44.254647,19.600189 44.354145,20.386965 44.354145,20.386965 C 44.354145,20.386965 45.059597,23.068548 45.059597,23.068548 C 45.059597,23.068548 47.435926,24.80517 47.435926,24.80517 C 47.435926,24.80517 46.937512,26.94788 46.937512,26.94788 C 46.937512,26.94788 46.243682,28.565196 46.243682,28.565196 C 46.243682,28.565196 46.733742,29.813604 46.733742,29.813604 C 46.733742,29.813604 47.866909,26.752579 47.866909,26.752579 C 47.866909,26.752579 49.825251,26.875763 49.825251,26.875763 C 49.825251,26.875763 48.752605,34.521332 48.752605,34.521332 C 48.752605,34.521332 48.892158,31.271606 48.892158,31.271606 C 48.892158,31.271606 48.307701,32.443219 48.307701,32.443219 C 48.307701,32.443219 45.926856,33.871651 45.926856,33.871651 C 45.926856,33.871651 44.842026,32.667576 44.842026,32.667576 C 44.842026,32.667576 44.787874,36.798041 44.787874,36.798041 C 44.787874,36.798041 45.140883,38.261356 45.140883,38.261356 C 45.140883,38.261356 46.430405,43.315338 46.430405,43.315338 C 46.430405,43.315338 43.336395,39.812892 43.336395,39.812892 C 43.336395,39.812892 40.217768,39.445598 40.217768,39.445598 C 40.217768,39.445598 39.801446,36.992983 39.801446,36.992983 C 39.801446,36.992983 40.417547,38.448914 40.417547,38.448914 C 40.417547,38.448914 37.959838,38.569219 37.959838,38.569219 C 37.959838,38.569219 40.14275,20.014671 40.14275,20.014671 C 40.14275,20.014671 36.935812,11.142651 36.935812,11.142651 C 36.935812,11.142651 43.176891,13.187466 43.176891,13.187466 C 43.176891,13.187466 47.809339,13.980863 47.809339,13.980863 C 47.809339,13.980863 49.960891,13.314239 49.960891,13.314239 C 49.960891,13.314239 48.585889,13.138582 48.585889,13.138582 C 48.585889,13.138582 47.990535,12.616115 47.990535,12.616115 C 47.990535,12.616115 50.10987,13.150275 50.10987,13.150275 C 50.10987,13.150275 50.141716,13.067162 50.141716,13.067162 C 50.141716,13.067162 51.390889,14.301093 51.390889,14.301093 C 51.390889,14.301093 49.950545,17.362498 49.950545,17.362498 C 49.950545,17.362498 50.458958,18.762406 50.458958,18.762406 C 50.458958,18.762406 51.985846,19.549653 51.985846,19.549653 M 45.447618,48.770548 C 45.447618,48.770548 42.606194,49.725431 42.606194,49.725431 C 42.606194,49.725431 41.581573,50.163453 41.581573,50.163453 C 41.581573,50.163453 40.84186,51.134969 40.84186,51.134969 C 40.84186,51.134969 40.771552,51.095671 40.771552,51.095671 C 40.771552,51.095671 39.289858,51.773005 39.289858,51.773005 C 39.289858,51.773005 39.893465,50.51386 39.893465,50.51386 C 39.893465,50.51386 39.255148,41.48165 39.255148,41.48165 C 39.255148,41.48165 39.375311,38.674204 39.375311,38.674204 C 39.375311,38.674204 42.167043,40.286869 42.167043,40.286869 C 42.167043,40.286869 43.760058,41.395467 43.760058,41.395467 C 43.760058,41.395467 45.428223,39.765567 45.428223,39.765567 C 45.428223,39.765567 44.531876,49.775938 44.531876,49.775938"
     id="path2654"
     inkscape:export-filename="/Users/jamesu/Projects/iPhone/webplay/Icon-72.png"
     inkscape:export-xdpi="108.67"
     inkscape:export-ydpi="108.67" />
  <path
     sodipodi:nodetypes="cccsscsscccccsccscscscccccsccscccsssccccccscssscccscsssccccsscccccccscssscssscscccssscscsccscssscccccccssssccsssccccccccscccsccsccccscscsccsssccccsscccsccccc"
     style="font-size:12px;font-style:normal;font-weight:normal;opacity:1;fill:#ffc29d;fill-opacity:0.67457628;stroke:none;stroke-width:1px;stroke-linecap:butt;stroke-linejoin:miter;stroke-opacity:1;filter:url(#filter2656);font-family:Bitstream Vera Sans"
     d="M 24.978562,32.822954 C 24.978562,32.822954 21.82917,46.162863 21.82917,46.162863 C 21.82917,46.162863 20.013074,48.0943 20.013074,48.0943 C 20.013074,48.0943 18.477839,47.462126 18.477839,47.462126 C 18.477839,47.462126 20.304477,46.213759 20.304477,46.213759 C 20.304477,46.213759 25.012606,47.315987 25.012606,47.315987 C 25.012606,47.315987 16.118916,46.86697 16.118916,46.86697 C 16.118916,46.86697 16.545017,47.694694 16.545017,47.694694 C 16.545017,47.694694 14.628051,44.957687 14.628051,44.957687 C 14.628051,44.957687 14.036239,47.392527 14.036239,47.392527 C 14.036239,47.392527 10.720767,45.682936 10.720767,45.682936 C 10.720767,45.682936 7.8687854,44.036218 7.8687854,44.036218 C 7.8687854,44.036218 6.9590443,43.239897 6.9590443,43.239897 C 6.9590443,43.239897 5.9814965,41.599353 5.9814965,41.599353 C 5.9814965,41.599353 6.6742906,41.43523 6.6742906,41.43523 C 6.6742906,41.43523 6.9136372,39.970512 6.9136372,39.970512 C 6.9136372,39.970512 4.0324535,37.251019 4.0324535,37.251019 C 4.0324535,37.251019 5.3345026,35.952413 5.3345026,35.952413 C 5.3345026,35.952413 3.9173193,26.579404 3.9173193,26.579404 C 3.9173193,26.579404 7.5751662,19.753375 7.5751662,19.753375 C 7.5751662,19.753375 4.4657844,15.947238 4.4657844,15.947238 C 4.4657844,15.947238 7.830645,11.647773 7.830645,11.647773 C 7.830645,11.647773 9.4933284,9.8573036 9.4933284,9.8573036 C 9.4933284,9.8573036 10.596141,8.2482966 10.596141,8.2482966 C 10.596141,8.2482966 14.934562,7.386621 14.934562,7.386621 C 14.934562,7.386621 21.26546,9.1703422 21.26546,9.1703422 C 21.26546,9.1703422 25.168352,12.821566 25.168352,12.821566 C 25.168352,12.821566 27.487353,18.596146 27.487353,18.596146 C 27.487353,18.596146 26.446938,19.408678 26.446938,19.408678 C 26.446938,19.408678 25.669713,26.702607 25.669713,26.702607 C 25.669713,26.702607 21.987429,28.635336 21.987429,28.635336 C 21.987429,28.635336 23.328641,25.873929 23.328641,25.873929 C 23.328641,25.873929 22.144933,29.369476 22.144933,29.369476 C 22.144933,29.369476 21.148965,32.896732 21.148965,32.896732 C 21.148965,32.896732 18.834069,27.749913 18.834069,27.749913 C 18.834069,27.749913 20.30094,29.801971 20.30094,29.801971 C 20.30094,29.801971 20.822882,30.151637 20.822882,30.151637 C 20.822882,30.151637 20.360234,30.970252 20.360234,30.970252 C 20.360234,30.970252 17.500124,33.333347 17.500124,33.333347 C 17.500124,33.333347 17.503195,37.255606 17.503195,37.255606 C 17.503195,37.255606 19.619884,38.759965 19.619884,38.759965 C 19.619884,38.759965 18.974009,38.56522 18.974009,38.56522 C 18.974009,38.56522 18.619683,37.322532 18.619683,37.322532 C 18.619683,37.322532 21.406922,38.511529 21.406922,38.511529 C 21.406922,38.511529 19.77902,42.40201 19.77902,42.40201 C 19.77902,42.40201 22.211793,40.778955 22.211793,40.778955 C 22.211793,40.778955 21.210977,36.923989 21.210977,36.923989 C 21.210977,36.923989 20.26279,33.993411 20.26279,33.993411 C 20.26279,33.993411 21.270999,36.59837 21.270999,36.59837 C 21.270999,36.59837 19.531188,35.829545 19.531188,35.829545 C 19.531188,35.829545 23.684117,32.976278 23.684117,32.976278 C 23.684117,32.976278 24.340233,33.241207 24.340233,33.241207 C 24.340233,33.241207 20.262802,34.89223 20.262802,34.89223 C 20.262802,34.89223 19.338634,34.370423 19.338634,34.370423 C 19.338634,34.370423 25.785158,31.219327 25.785158,31.219327 C 25.785158,31.219327 18.173615,33.248362 18.173615,33.248362 C 18.173615,33.248362 19.179231,29.942792 19.179231,29.942792 C 19.179231,29.942792 20.821722,29.873977 20.821722,29.873977 C 20.821722,29.873977 20.938103,29.87674 20.938103,29.87674 C 20.938103,29.87674 25.077264,32.429918 25.077264,32.429918 C 25.077264,32.429918 24.962243,30.858141 24.962243,30.858141 C 24.962243,30.858141 25.794615,33.716793 25.794615,33.716793 M 34.889737,25.48591 C 34.889737,25.48591 36.635453,34.374945 36.635453,34.374945 C 36.635453,34.374945 37.00781,46.789382 37.00781,46.789382 C 37.00781,46.789382 34.353847,47.12242 34.353847,47.12242 C 34.353847,47.12242 34.951496,48.319265 34.951496,48.319265 C 34.951496,48.319265 32.555952,44.753217 32.555952,44.753217 C 32.555952,44.753217 28.803696,45.175946 28.803696,45.175946 C 28.803696,45.175946 28.110374,44.576936 28.110374,44.576936 C 28.110374,44.576936 26.767799,45.37129 26.767799,45.37129 C 26.767799,45.37129 26.513701,45.515061 26.513701,45.515061 C 26.513701,45.515061 25.40557,46.376285 25.40557,46.376285 C 25.40557,46.376285 24.452502,46.884928 24.452502,46.884928 C 24.452502,46.884928 23.474305,43.152266 23.474305,43.152266 C 23.474305,43.152266 22.46377,38.789252 22.46377,38.789252 C 22.46377,38.789252 22.656955,37.438639 22.656955,37.438639 C 22.656955,37.438639 24.862648,37.160275 24.862648,37.160275 C 24.862648,37.160275 26.544149,30.005014 26.544149,30.005014 C 26.544149,30.005014 24.449548,32.512981 24.449548,32.512981 C 24.449548,32.512981 27.617744,14.531145 27.617744,14.531145 C 27.617744,14.531145 27.489597,14.005422 27.489597,14.005422 C 27.489597,14.005422 19.696546,19.033146 19.696546,19.033146 C 19.696546,19.033146 22.731601,14.159564 22.731601,14.159564 C 22.731601,14.159564 28.211921,12.348559 28.211921,12.348559 C 28.211921,12.348559 22.598885,12.083184 22.598885,12.083184 C 22.598885,12.083184 22.586826,11.768174 22.586826,11.768174 C 22.586826,11.768174 26.844308,13.200084 26.844308,13.200084 C 26.844308,13.200084 22.483916,13.574701 22.483916,13.574701 C 22.483916,13.574701 27.83083,8.1170531 27.83083,8.1170531 C 27.83083,8.1170531 27.913682,6.630868 27.913682,6.630868 C 27.913682,6.630868 26.637874,6.0539941 26.637874,6.0539941 C 26.637874,6.0539941 26.147395,5.3025945 26.147395,5.3025945 C 26.147395,5.3025945 27.565206,7.7300373 27.565206,7.7300373 C 27.565206,7.7300373 28.886797,4.6630265 28.886797,4.6630265 C 28.886797,4.6630265 32.800248,8.4224593 32.800248,8.4224593 C 32.800248,8.4224593 35.701421,5.6169492 35.701421,5.6169492 C 35.701421,5.6169492 37.622997,14.409689 37.622997,14.409689 M 50.630487,16.916847 C 50.630487,16.916847 49.595403,16.04059 49.595403,16.04059 C 49.595403,16.04059 48.441403,16.69819 48.441403,16.69819 C 48.441403,16.69819 45.945701,15.134808 45.945701,15.134808 C 45.945701,15.134808 43.820739,15.505907 43.820739,15.505907 C 43.820739,15.505907 44.733489,16.316861 44.733489,16.316861 C 44.733489,16.316861 42.107108,16.506001 42.107108,16.506001 C 42.107108,16.506001 42.908361,15.546041 42.908361,15.546041 C 42.908361,15.546041 44.040608,14.780467 44.040608,14.780467 C 44.040608,14.780467 43.794671,15.513221 43.794671,15.513221 C 43.794671,15.513221 43.62546,16.505788 43.62546,16.505788 C 43.62546,16.505788 42.254647,15.600189 42.254647,15.600189 C 42.254647,15.600189 42.354145,16.386965 42.354145,16.386965 C 42.354145,16.386965 43.059597,19.068548 43.059597,19.068548 C 43.059597,19.068548 45.435926,20.80517 45.435926,20.80517 C 45.435926,20.80517 44.937512,22.94788 44.937512,22.94788 C 44.937512,22.94788 44.243682,24.565196 44.243682,24.565196 C 44.243682,24.565196 44.733742,25.813604 44.733742,25.813604 C 44.733742,25.813604 45.866909,22.752579 45.866909,22.752579 C 45.866909,22.752579 47.825251,22.875763 47.825251,22.875763 C 47.825251,22.875763 46.752605,30.521332 46.752605,30.521332 C 46.752605,30.521332 46.892158,27.271606 46.892158,27.271606 C 46.892158,27.271606 46.307701,28.443219 46.307701,28.443219 C 46.307701,28.443219 43.926856,29.871651 43.926856,29.871651 C 43.926856,29.871651 42.842026,28.667576 42.842026,28.667576 C 42.842026,28.667576 42.787874,32.798041 42.787874,32.798041 C 42.787874,32.798041 43.140883,34.261356 43.140883,34.261356 C 43.140883,34.261356 44.430405,39.315338 44.430405,39.315338 C 44.430405,39.315338 41.336395,35.812892 41.336395,35.812892 C 41.336395,35.812892 38.217768,35.445598 38.217768,35.445598 C 38.217768,35.445598 37.801446,32.992983 37.801446,32.992983 C 37.801446,32.992983 38.417547,34.448914 38.417547,34.448914 C 38.417547,34.448914 35.959838,34.569219 35.959838,34.569219 C 35.959838,34.569219 38.14275,16.014671 38.14275,16.014671 C 38.14275,16.014671 34.935812,7.1426514 34.935812,7.1426514 C 34.935812,7.1426514 41.176891,9.1874663 41.176891,9.1874663 C 41.176891,9.1874663 45.809339,9.9808626 45.809339,9.9808626 C 45.809339,9.9808626 47.960891,9.3142393 47.960891,9.3142393 C 47.960891,9.3142393 46.585889,9.1385821 46.585889,9.1385821 C 46.585889,9.1385821 45.990535,8.6161153 45.990535,8.6161153 C 45.990535,8.6161153 48.10987,9.1502752 48.10987,9.1502752 C 48.10987,9.1502752 48.141716,9.0671621 48.141716,9.0671621 C 48.141716,9.0671621 49.390889,10.301093 49.390889,10.301093 C 49.390889,10.301093 47.950545,13.362498 47.950545,13.362498 C 47.950545,13.362498 48.458958,14.762406 48.458958,14.762406 C 48.458958,14.762406 49.985846,15.549653 49.985846,15.549653 M 43.447618,44.770548 C 43.447618,44.770548 40.606194,45.725431 40.606194,45.725431 C 40.606194,45.725431 39.581573,46.163453 39.581573,46.163453 C 39.581573,46.163453 38.84186,47.134969 38.84186,47.134969 C 38.84186,47.134969 38.771552,47.095671 38.771552,47.095671 C 38.771552,47.095671 37.289858,47.773005 37.289858,47.773005 C 37.289858,47.773005 37.893465,46.51386 37.893465,46.51386 C 37.893465,46.51386 37.255148,37.48165 37.255148,37.48165 C 37.255148,37.48165 37.375311,34.674204 37.375311,34.674204 C 37.375311,34.674204 40.167043,36.286869 40.167043,36.286869 C 40.167043,36.286869 41.760058,37.395467 41.760058,37.395467 C 41.760058,37.395467 43.428223,35.765567 43.428223,35.765567 C 43.428223,35.765567 42.531876,45.775938 42.531876,45.775938"
     id="path4598"
     transform="matrix(1.0277896,0,0,1.106811,3.0786005,-3.1922294)"
     inkscape:export-filename="/Users/jamesu/Projects/iPhone/webplay/Icon-72.png"
     inkscape:export-xdpi="108.67"
     inkscape:export-ydpi="108.67" />
  <path
     id="text2394"
     d="M 25.634265,31.405349 C 25.026248,37.741355 24.578249,42.82935 24.290265,46.669349 L 21.938265,46.813349 C 21.970251,46.685346 21.986251,46.541346 21.986265,46.381349 C 21.986251,46.093347 21.874251,45.709347 21.650265,45.229349 C 21.426252,44.781348 21.298252,44.493348 21.266265,44.365349 C 20.658253,44.461348 20.082253,44.893348 19.538265,45.661349 C 18.994254,46.429346 18.498255,46.813346 18.050265,46.813349 C 17.794255,46.813346 17.506256,46.749346 17.186265,46.621349 C 16.770256,46.909346 16.226257,47.037346 15.554265,47.005349 C 14.946258,46.909346 14.354259,46.829346 13.778265,46.765349 C 13.746259,45.965347 12.94626,45.277347 11.378265,44.701349 C 11.378262,44.381348 11.202262,43.917349 10.850265,43.309349 C 10.530263,42.66935 10.370263,42.221351 10.370265,41.965349 C 10.370263,41.677351 10.482263,41.437351 10.706265,41.245349 C 10.674262,41.149352 10.402263,40.557352 9.8902651,39.469349 C 9.5382636,38.669354 9.3622638,37.981355 9.3622651,37.405349 C 9.3622638,36.957356 9.4582637,36.541356 9.6502651,36.157349 C 9.3302638,33.437359 9.170264,31.101362 9.1702651,29.149349 C 9.170264,26.141367 9.5542636,23.373369 10.322265,20.845349 C 10.258263,20.461372 10.226263,20.077373 10.226265,19.693349 C 10.226263,17.677375 10.898262,16.269377 12.242265,15.469349 L 12.242265,14.845349 C 13.55426,13.11738 15.298258,11.853381 17.474265,11.053349 C 18.786254,11.341381 20.098253,11.613381 21.410265,11.869349 C 22.88225,12.34938 23.906249,13.19738 24.482265,14.413349 C 24.930248,14.669378 25.154248,15.197378 25.154265,15.997349 C 25.154248,16.893376 25.266248,17.469375 25.490265,17.725349 L 25.250265,18.013349 C 25.538248,19.901373 25.682247,21.053372 25.682265,21.469349 C 25.682247,22.68537 25.378248,23.549369 24.770265,24.061349 C 24.546249,24.061369 23.954249,23.869369 22.994265,23.485349 C 22.77025,23.709369 22.530251,23.821369 22.274265,23.821349 C 22.146251,23.821369 21.906251,23.757369 21.554265,23.629349 C 21.234252,23.501369 20.962252,23.437369 20.738265,23.437349 C 20.578253,23.437369 20.418253,23.469369 20.258265,23.533349 C 20.194253,21.005372 20.242253,19.117374 20.402265,17.869349 C 20.146253,17.709375 19.874253,17.341375 19.586265,16.765349 C 19.330254,16.189377 18.994254,15.869377 18.578265,15.805349 C 18.322255,16.125377 18.210255,16.333376 18.242265,16.429349 L 17.378265,16.141349 C 16.610257,17.005376 16.114257,18.493374 15.890265,20.605349 C 15.666258,23.03737 15.362258,24.653368 14.978265,25.453349 C 15.330258,25.805367 15.506258,26.301366 15.506265,26.941349 C 15.506258,27.165366 15.474258,27.533365 15.410265,28.045349 C 15.346258,28.557364 15.314258,28.941364 15.314265,29.197349 C 15.314258,29.485363 15.346258,29.741363 15.410265,29.965349 L 14.834265,30.541349 C 15.090258,31.629361 15.250258,33.00536 15.314265,34.669349 C 15.314258,36.077357 15.330258,37.485355 15.362265,38.893349 C 15.330258,38.893354 15.058258,38.909354 14.546265,38.941349 C 14.226259,38.941354 14.002259,39.053354 13.874265,39.277349 C 14.066259,39.245354 14.242259,39.229354 14.402265,39.229349 C 15.106258,39.229354 15.666258,39.725353 16.082265,40.717349 C 16.498257,41.677351 16.850256,42.157351 17.138265,42.157349 C 17.458256,42.157351 17.890255,41.853351 18.434265,41.245349 C 19.362254,40.221353 19.826253,38.829354 19.826265,37.069349 C 19.826253,36.205357 19.714253,35.277357 19.490265,34.285349 C 19.266254,34.413358 19.154254,34.733358 19.154265,35.245349 C 18.642255,35.245358 18.322255,35.357357 18.194265,35.581349 C 17.970255,35.517357 17.874255,35.341357 17.906265,35.053349 C 17.938255,34.637358 17.954255,34.413358 17.954265,34.381349 C 18.338255,34.253359 18.530255,34.077359 18.530265,33.853349 C 18.530255,33.757359 18.450255,33.581359 18.290265,33.325349 C 18.162255,33.06936 18.098255,32.86136 18.098265,32.701349 C 18.098255,32.57336 18.130255,32.44536 18.194265,32.317349 L 18.386265,30.445349 C 19.090254,30.637362 20.610253,30.701362 22.946265,30.637349 C 22.88225,30.797362 22.97825,31.005362 23.234265,31.261349 C 23.45825,31.037362 23.698249,30.925362 23.954265,30.925349 C 24.146249,30.925362 24.434249,31.005362 24.818265,31.165349 C 25.202248,31.325361 25.474248,31.405361 25.634265,31.405349 M 35.746515,13.213349 L 34.834515,37.117349 L 34.546515,37.405349 C 34.898507,37.661355 34.946507,38.061355 34.690515,38.605349 C 34.466507,39.149354 34.514507,39.549353 34.834515,39.805349 C 34.738507,39.997353 34.626507,41.021352 34.498515,42.877349 C 34.402507,44.157349 33.906508,44.797348 33.010515,44.797349 C 32.690509,44.797348 32.30651,44.717348 31.858515,44.557349 C 31.63451,44.269349 31.34651,44.125349 30.994515,44.125349 C 30.866511,44.125349 30.674511,44.141349 30.418515,44.173349 C 30.194512,44.237349 30.018512,44.269349 29.890515,44.269349 C 29.506512,44.269349 29.266513,43.997349 29.170515,43.453349 C 29.362512,42.84535 29.458512,42.173351 29.458515,41.437349 C 29.458512,40.925352 29.394512,40.173353 29.266515,39.181349 C 29.138513,38.157355 29.074513,37.405355 29.074515,36.925349 C 29.074513,36.477356 29.122513,36.061357 29.218515,35.677349 C 29.218513,34.813358 29.202513,33.19736 29.170515,30.829349 C 29.138513,28.653364 29.138513,26.957366 29.170515,25.741349 C 29.202513,23.853369 29.314513,22.189371 29.506515,20.749349 L 29.746515,20.461349 C 29.554512,20.269373 29.458512,20.061373 29.458515,19.837349 C 29.458512,19.709373 29.506512,19.501373 29.602515,19.213349 C 29.730512,18.925374 29.794512,18.717374 29.794515,18.589349 C 29.794512,18.365374 29.698512,18.173375 29.506515,18.013349 C 29.698512,17.757375 29.794512,17.469375 29.794515,17.149349 C 29.794512,16.957376 29.730512,16.653376 29.602515,16.237349 C 29.506512,15.789377 29.458512,15.469377 29.458515,15.277349 C 29.458512,14.957378 29.554512,14.669378 29.746515,14.413349 L 29.506515,14.125349 C 29.698512,14.029379 29.778512,13.853379 29.746515,13.597349 C 29.714512,13.21338 29.714512,12.98938 29.746515,12.925349 C 30.002512,12.86138 30.274512,12.82938 30.562515,12.829349 C 30.914511,12.82938 31.41051,12.89338 32.050515,13.021349 C 32.722509,13.14938 33.186509,13.21338 33.442515,13.213349 C 34.018508,13.21338 34.482507,13.02138 34.834515,12.637349 L 35.746515,13.213349 M 51.768765,15.997349 L 51.816765,15.997349 C 51.400751,16.669376 50.904751,16.765376 50.328765,16.285349 C 50.200752,16.253377 49.624753,16.253377 48.600765,16.285349 C 47.736754,16.285376 47.112755,16.189377 46.728765,15.997349 C 46.632756,15.997377 46.440756,16.109377 46.152765,16.333349 C 45.864756,16.525376 45.656757,16.621376 45.528765,16.621349 C 45.336757,16.621376 45.240757,16.413376 45.240765,15.997349 C 45.240757,15.933377 45.240757,15.661377 45.240765,15.181349 C 45.240757,14.861378 45.128757,14.637378 44.904765,14.509349 L 44.280765,15.037349 C 44.088758,15.197378 43.992758,15.373377 43.992765,15.565349 C 43.992758,15.725377 44.088758,15.965377 44.280765,16.285349 C 44.472758,16.573376 44.584758,16.781376 44.616765,16.909349 C 44.616758,17.005376 44.616758,18.445374 44.616765,21.229349 C 44.584758,22.98937 44.776757,24.413368 45.192765,25.501349 C 45.320757,25.341367 45.608757,25.277367 46.056765,25.309349 C 46.536756,25.309367 46.856755,25.197368 47.016765,24.973349 C 47.304755,25.325367 47.800754,25.389367 48.504765,25.165349 C 49.240753,24.909368 49.752752,25.037368 50.040765,25.549349 L 49.752765,29.773349 C 49.464753,29.709363 49.048753,29.501363 48.504765,29.149349 C 48.312754,29.757363 47.976754,30.125363 47.496765,30.253349 C 47.304755,30.317362 46.760755,30.349362 45.864765,30.349349 C 45.896756,30.157363 45.768756,29.949363 45.480765,29.725349 C 44.584758,30.173363 44.200758,31.373361 44.328765,33.325349 C 44.360758,33.13336 44.376758,33.469359 44.376765,34.333349 C 44.376758,34.877358 44.264758,35.261358 44.040765,35.485349 C 43.496759,35.549357 42.808759,35.357357 41.976765,34.909349 C 41.176761,34.429358 40.600762,34.189359 40.248765,34.189349 C 40.088762,34.189359 39.944762,34.205359 39.816765,34.237349 L 38.904765,34.525349 L 38.376765,15.085349 L 38.376765,12.061349 C 39.592763,11.645381 41.080761,11.437381 42.840765,11.437349 C 44.216758,11.437381 46.008756,11.581381 48.216765,11.869349 C 48.376754,11.517381 48.616754,11.341381 48.936765,11.341349 C 49.096753,11.341381 49.336753,11.389381 49.656765,11.485349 C 49.976752,11.549381 50.216752,11.581381 50.376765,11.581349 C 50.568752,11.581381 50.744751,11.549381 50.904765,11.485349 L 51.144765,11.197349 C 51.78475,11.485381 52.10475,11.933381 52.104765,12.541349 C 52.10475,12.79738 52.02475,13.22938 51.864765,13.837349 C 51.704751,14.445378 51.624751,14.909378 51.624765,15.229349 C 51.624751,15.517377 51.672751,15.773377 51.768765,15.997349 M 44.664765,45.853349 C 44.312758,46.045347 43.784758,46.141347 43.080765,46.141349 C 42.15276,46.141347 41.592761,46.157347 41.400765,46.189349 C 41.304761,46.061347 41.176761,45.485347 41.016765,44.461349 C 40.920761,43.789349 40.600762,43.453349 40.056765,43.453349 C 39.928762,43.453349 39.768762,43.469349 39.576765,43.501349 L 38.712765,43.501349 L 38.712765,36.349349 C 39.192763,36.093357 39.784762,35.965357 40.488765,35.965349 C 41.160761,35.965357 41.75276,36.093357 42.264765,36.349349 C 42.23276,36.701356 42.63276,36.877356 43.464765,36.877349 L 44.376765,36.877349 C 44.792757,39.661353 44.888757,42.65335 44.664765,45.853349"
     style="font-size:12px;font-style:normal;font-weight:normal;fill:#ffffff;fill-opacity:0.97297299;stroke:none;stroke-width:1px;stroke-linecap:butt;stroke-linejoin:miter;stroke-opacity:1;font-family:Bitstream Vera Sans"
     inkscape:export-filename="/Users/jamesu/Projects/iPhone/webplay/Icon-72.png"
     inkscape:export-xdpi="108.67"
     inkscape:export-ydpi="108.67" />
</svg>
